HIERARCHY
ROOT hip
{
	OFFSET 0.000000 0.000000 0.000000 
	CHANNELS 6 Xposition Yposition Zposition Xrotation Zrotation Yrotation
	JOINT abdomen
	{
		OFFSET 0.000000 3.402643 0.000000 
		CHANNELS 3 Xrotation Zrotation Yrotation
		JOINT chest
		{
			OFFSET 0.000000 8.438565 -0.680529 
			CHANNELS 3 Xrotation Zrotation Yrotation
			JOINT neck
			{
				OFFSET 0.000000 10.207942 -0.272212 
				CHANNELS 3 Xrotation Zrotation Yrotation
				JOINT head
				{
					OFFSET 0.000000 3.130431 0.000000 
					CHANNELS 3 Xrotation Zrotation Yrotation
					End Site
					{
						OFFSET 0.000000 3.130435 0.000000 
					}
				}
			}
			JOINT lCollar
			{
				OFFSET 3.470700 6.669187 -0.816635 
				CHANNELS 3 Yrotation Zrotation Xrotation
				JOINT lShldr
				{
					OFFSET 3.198488 0.000000 0.000000 
					CHANNELS 3 Zrotation Yrotation Xrotation
					JOINT lForeArm
					{
						OFFSET 10.139888 0.000000 0.000000 
						CHANNELS 3 Yrotation Zrotation Xrotation
						JOINT lHand
						{
							OFFSET 8.370511 0.000000 0.000000 
							CHANNELS 3 Zrotation Yrotation Xrotation
							End Site
							{
								OFFSET 4.083176 0.000000 0.000000 
							}
						}
					}
				}
			}
			JOINT rCollar
			{
				OFFSET -3.470700 6.669187 -0.816635 
				CHANNELS 3 Yrotation Zrotation Xrotation
				JOINT rShldr
				{
					OFFSET -3.198488 0.000000 0.000000 
					CHANNELS 3 Zrotation Yrotation Xrotation
					JOINT rForeArm
					{
						OFFSET -10.139888 0.000000 0.000000 
						CHANNELS 3 Yrotation Zrotation Xrotation
						JOINT rHand
						{
							OFFSET -8.370511 0.000000 0.000000 
							CHANNELS 3 Zrotation Yrotation Xrotation
							End Site
							{
								OFFSET -4.083176 0.000000 0.000000 
							}
						}
					}
				}
			}
		}
	}
	JOINT lThigh
	{
		OFFSET 5.308129 -1.633274 1.361059 
		CHANNELS 3 Xrotation Zrotation Yrotation
		JOINT lShin
		{
			OFFSET -2.041588 -20.007561 0.000000 
			CHANNELS 3 Xrotation Zrotation Yrotation
			JOINT lFoot
			{
				OFFSET 0.000000 -19.190928 -1.224953 
				CHANNELS 3 Xrotation Yrotation Zrotation
				End Site
				{
					OFFSET 0.000000 -2.449906 4.627600 
				}
			}
		}
	}
	JOINT rThigh
	{
		OFFSET -5.308129 -1.633274 1.361059 
		CHANNELS 3 Xrotation Zrotation Yrotation
		JOINT rShin
		{
			OFFSET 2.041588 -20.007561 0.000000 
			CHANNELS 3 Xrotation Zrotation Yrotation
			JOINT rFoot
			{
				OFFSET 0.000000 -19.190928 -1.224953 
				CHANNELS 3 Xrotation Yrotation Zrotation
				End Site
				{
					OFFSET 0.000000 -2.449906 4.627600 
				}
			}
		}
	}
}
MOTION
Frames: 13
Frame Time: 0.033333
0.949901 51.123783 0.433553 0.235657 0.097648 0.751969 0.000000 0.000000 0.000000 -4.277370 -0.009766 0.156250 6.914031 0.185547 -0.009766 7.901766 -1.640604 0.292849 0.277561 10.431261 -3.367209 -6.295165 -3.804032 -9.542595 0.613534 -3.610866 13.934415 0.801553 -3.914264 -3.445998 -0.490904 -9.577705 -3.416384 -0.664837 -6.989557 -13.207315 -0.367724 5.529699 17.696741 -1.463766 5.146252 -3.496489 7.243788 7.439612 7.038746 -0.722638 -2.700242 7.319904 -5.071776 0.279383 -6.401370 6.976346 -8.509908 -8.247478 -0.193175 3.263640 -10.938151 -4.578491 -0.295048 6.968420 
0.938708 51.129448 0.409332 0.226450 0.136706 0.771506 0.000000 0.000000 0.000000 -4.189528 -0.029297 0.146484 6.933661 0.195313 0.019564 7.822522 -1.640597 0.331895 0.248875 10.354185 -3.286835 -6.306886 -3.857974 -9.722464 0.625066 -3.488767 14.275509 0.731395 -3.889127 -3.440409 -0.540752 -9.623654 -3.347340 -0.614865 -6.922856 -13.090281 -0.372250 5.586424 17.561611 -1.560037 4.954535 -3.501206 7.387415 7.417911 7.075377 -1.085009 -2.751112 7.305218 -4.837768 0.273181 -6.346527 6.970788 -8.514328 -8.227671 -0.223371 3.266266 -11.028073 -4.523249 -0.279249 6.942162 
0.937828 51.132328 0.372598 0.325541 0.234352 0.800814 0.000000 0.000000 0.000000 -4.189655 -0.107422 0.107422 6.943151 0.244141 -0.048828 7.732990 -1.767543 0.361457 0.248234 10.510729 -3.288618 -6.671807 -3.903265 -9.797763 0.595731 -3.395043 14.186006 0.958216 -3.748317 -3.454643 -0.502356 -9.498692 -3.336104 -0.538726 -6.920054 -13.486279 -0.367575 5.377827 17.770914 -1.503725 4.997092 -3.496957 7.374975 7.299334 6.951137 -1.407223 -2.740761 7.442446 -4.616932 0.247906 -6.289503 6.697544 -8.631169 -8.260295 0.098599 3.265523 -10.879266 -4.657975 -0.299880 6.957412 
0.940343 51.135986 0.334561 0.423168 0.253886 0.732458 0.000000 0.000000 0.000000 -4.189652 -0.078125 0.146484 6.982358 0.185547 -0.019531 7.823640 -1.640604 0.292849 0.236298 10.442991 -3.298212 -7.225948 -3.989885 -10.558869 0.524343 -2.908194 13.826832 0.829457 -3.726714 -3.445388 -0.386609 -9.554228 -3.326488 -0.033337 -6.948348 -14.144319 -0.309955 4.954396 17.719942 -1.181680 5.016473 -3.479409 7.273656 7.245834 6.894340 -1.466557 -2.732112 7.631471 -4.523664 0.251994 -6.285962 6.462820 -8.669428 -8.223550 0.264205 3.238856 -10.828651 -4.693315 -0.337269 6.963474 
0.937699 51.142418 0.304375 0.481844 0.244118 0.781285 0.000000 0.000000 0.000000 -4.228493 -0.019531 0.087888 7.265604 0.126953 -0.009766 7.679227 -1.425767 0.253828 0.182479 10.328728 -3.306042 -8.470431 -4.195195 -11.916136 0.371040 -1.939035 13.103330 0.721137 -3.058110 -3.442048 -0.404345 -9.660842 -3.337736 1.076577 -6.680197 -15.197567 -0.217329 4.335831 17.078405 -1.089753 4.797035 -3.467774 7.046476 7.262572 6.868165 -1.210451 -2.720254 7.653741 -4.640638 0.230459 -6.297331 6.453588 -8.641326 -8.190189 0.099037 3.244554 -10.976603 -4.593203 -0.290186 6.938964 
0.935062 51.156250 0.265050 0.589759 0.273411 0.800819 0.000000 0.000000 0.000000 -4.267605 -0.039063 0.039063 7.607303 0.175781 -0.039062 7.501663 -1.533182 0.302626 0.213634 10.239181 -3.344476 -10.586225 -4.602958 -13.670755 0.196406 -0.587037 12.158930 0.609789 -2.008077 -3.447309 -0.354838 -9.702963 -3.377887 2.980816 -6.095549 -17.135904 -0.077467 3.262805 15.570680 -0.706994 4.135162 -3.440392 6.922229 7.264924 6.888499 -1.298655 -2.818290 7.622817 -4.540390 0.243990 -6.236722 6.441481 -8.638732 -8.150483 -0.195601 3.250328 -11.094767 -4.388990 -0.294201 6.890698 
0.935944 51.167702 0.226059 0.805695 0.351528 0.800826 0.000000 0.000000 0.000000 -4.374945 -0.107422 -0.029315 7.607364 0.068359 -0.048828 8.745645 -1.064444 0.234335 -0.010480 9.832333 -3.429273 -13.001440 -4.930148 -15.365435 0.182887 0.823748 11.377901 -0.063702 -0.894098 -3.436173 -0.321836 -9.079130 -3.459888 4.912960 -5.020452 -18.346193 -0.195805 2.487172 13.968119 -1.288420 3.033483 -3.481516 6.647535 7.175943 6.789629 -1.357035 -2.847199 7.793348 -4.427254 0.230066 -6.187479 6.168983 -8.718213 -8.118221 -0.195408 3.249845 -11.124043 -4.330337 -0.276701 6.875654 
0.939210 51.184444 0.166033 0.993668 0.478459 0.878957 0.000000 0.000000 0.000000 -4.373918 -0.244138 -0.253946 7.421709 0.039062 -0.244141 11.049444 -1.025378 0.292922 -0.288750 8.606447 -3.427805 -15.244802 -4.809180 -16.318146 -0.904873 1.833366 11.040181 -2.624948 0.715284 -3.404989 -0.349772 -7.795815 -3.438945 6.886572 -4.426288 -17.655071 1.830416 2.283766 12.929365 -0.874293 1.189560 -3.474668 6.502800 7.031114 6.623820 -1.669925 -2.848149 7.872455 -4.152001 0.226468 -6.109745 5.921659 -8.840403 -8.170677 -0.194446 3.247440 -11.269870 -4.229155 -0.285927 6.859092 
0.935325 51.191605 0.093251 1.039733 0.244098 1.074251 0.000000 0.000000 0.000000 -4.305429 -0.126947 -0.546895 7.470780 -0.009765 -0.449220 14.052165 -0.371093 0.087889 -0.737168 6.841146 -3.334226 -18.024328 -1.908322 -15.110742 -8.021274 1.887023 9.878352 -7.222339 3.820653 -3.536406 -0.269867 -5.794924 -3.346575 9.587782 -8.265163 -13.630272 13.493173 2.277459 14.143465 3.549020 -0.466722 -3.375028 6.228168 7.235312 6.601295 -1.444676 -2.709767 7.668168 -4.208539 0.222962 -6.196994 5.887770 -8.603095 -8.042158 -0.389622 3.277299 -11.683911 -4.061588 -0.272874 6.797670 
0.952826 51.192368 0.043009 0.941366 0.224576 0.986359 0.000000 0.000000 0.000000 -4.256854 -0.087885 -0.625014 7.766821 -0.429676 -0.419983 17.635221 0.878905 -0.097645 -0.784948 5.248681 -3.285024 -21.950665 2.227515 -12.046060 -18.217354 1.205566 8.076206 -13.298532 6.348662 -3.875668 -0.210777 -4.350551 -3.290309 12.861684 -12.859745 -9.091885 26.567461 2.349586 17.606913 11.320168 -0.277874 -3.142756 6.285954 7.263177 6.703399 -1.414035 -2.796586 7.668705 -4.163192 0.201698 -6.109757 5.935388 -8.641231 -8.106668 -0.379888 3.355435 -11.411235 -4.023143 -0.269848 6.766417 
0.981790 51.189850 -0.012477 0.823064 0.185526 0.849637 0.000000 0.000000 0.000000 -4.198403 -0.068355 -0.683605 8.188582 -0.263625 -1.084018 20.858816 0.068357 -0.468750 -0.801273 3.830405 -3.229403 -25.606337 4.259703 -8.276477 -22.948235 0.103686 5.371862 -20.635784 7.359333 -4.287675 -0.033987 -2.678129 -3.235734 15.968784 -14.177161 -6.609485 32.587410 2.386741 19.462576 20.125000 0.532691 -2.758615 6.296812 7.254695 6.712072 -1.285243 -2.754826 7.737626 -4.205565 0.218279 -6.093021 5.975431 -8.652021 -8.098296 -0.430157 3.367856 -11.190870 -3.930843 -0.277032 6.750983 
1.035411 51.188713 -0.086396 0.636537 0.185538 0.546904 0.000000 0.000000 0.000000 -3.933428 -0.185535 -0.654325 8.237015 -0.224562 -1.171904 25.233141 0.136713 -0.517577 -0.695487 2.598385 -2.991142 -29.742256 5.373632 -6.178972 -25.849762 -0.410317 5.732732 -29.856485 7.868543 -4.747720 0.577360 -0.743895 -2.978484 18.764658 -14.453594 -5.056338 35.399265 2.733982 19.417107 25.736116 0.030783 -2.673389 6.423531 7.157326 6.650003 -1.222966 -2.732706 8.065378 -4.189006 0.241489 -6.061769 5.945177 -8.738645 -8.088838 -0.312930 3.319009 -10.967198 -3.827760 -0.248982 6.802883 
1.105279 51.186440 -0.141823 0.293368 0.117187 0.195332 0.000000 0.000000 0.000000 -3.503882 -0.214835 -0.527377 8.561215 -0.361269 -1.035197 28.676338 0.527317 -0.576147 -0.602675 1.161097 -2.578628 -33.744453 6.205267 -5.532469 -28.514273 -0.393796 8.345236 -35.594223 7.498552 -4.886548 1.145309 0.896282 -2.597602 21.965025 -14.254789 -4.529102 37.071884 3.119707 19.292995 26.621386 -1.287662 -2.970087 6.550512 7.068552 6.598637 -0.810942 -2.603704 8.417500 -4.375892 0.273727 -6.040924 6.126907 -8.722855 -8.059421 -0.331760 3.211251 -10.643933 -3.686083 -0.258844 6.901554 
